<svg width="75" height="61" viewBox="0 0 75 61" fill="none" xmlns="http://www.w3.org/2000/svg">
<path d="M55.4511 60.5H41.7333L37.1928 48.0099H18.5481L14.1043 60.5H0L20.4802 7.69368H35.2607L55.4511 60.5ZM34.1981 39.3933L27.8222 18.6028L21.5429 39.3933H34.1981Z" fill="#F37B0B"/>
<path d="M73.9373 60.5H60.4127V20.0257L73.9373 19.0771V60.5ZM59.1568 6.98221C59.1568 5.19038 59.9297 3.66206 61.4753 2.39724C63.021 1.13241 64.8887 0.5 67.0784 0.5C69.2681 0.5 71.1358 1.13241 72.6815 2.39724C74.2272 3.66206 75 5.19038 75 6.98221C75 8.72134 74.2272 10.2497 72.6815 11.5672C71.1358 12.8847 69.2681 13.5435 67.0784 13.5435C64.8887 13.5435 63.021 12.9111 61.4753 11.6462C59.9297 10.3287 59.1568 8.77405 59.1568 6.98221Z" fill="#F37B0B"/>
</svg>
