<svg width="46" height="69" viewBox="0 0 46 69" fill="none" xmlns="http://www.w3.org/2000/svg">
<circle cx="34.5" cy="34.5" r="11.5" fill="#1ABCFE"/>
<path d="M0 11.5C0 5.14873 5.14873 0 11.5 0H23V23H11.5C5.14873 23 0 17.8513 0 11.5Z" fill="#F24E1E"/>
<path d="M46 11.5C46 5.14873 40.8513 0 34.5 0H23V23H34.5C40.8513 23 46 17.8513 46 11.5Z" fill="#FF7262"/>
<path d="M0 34.5C0 28.1487 5.14873 23 11.5 23H23V46H11.5C5.14873 46 0 40.8513 0 34.5Z" fill="#A259FF"/>
<path d="M0 57.5C0 51.1487 5.14873 46 11.5 46H23V57.5C23 63.8513 17.8513 69 11.5 69C5.14873 69 0 63.8513 0 57.5Z" fill="#0ACF83"/>
</svg>
