<svg width="67" height="61" viewBox="0 0 67 61" fill="none" xmlns="http://www.w3.org/2000/svg">
<path d="M14.1337 4.00487V59.749H0V4.00487H14.1337Z" fill="#FF3366"/>
<path d="M23.1267 39.3873C23.1267 23.9214 30.2263 16.1885 44.4254 16.1885C48.0242 16.1885 50.936 16.6892 53.1608 17.6905V0.5H67V60.3331H55.6145L54.8293 57.162C51.165 59.3873 46.8137 60.5 41.7753 60.5C35.6245 60.5 30.9788 58.6085 27.8379 54.8255C24.6971 51.0424 23.1267 45.8964 23.1267 39.3873ZM45.7995 25.3679C39.4524 25.3679 36.2789 29.9576 36.2789 39.137C36.2789 47.5376 39.2234 51.7378 45.1124 51.7378C48.1224 51.7378 50.8379 51.0981 53.2589 49.8185V26.5362C51.0996 25.7573 48.6131 25.3679 45.7995 25.3679Z" fill="#FF3366"/>
</svg>
