<svg width="56" height="56" viewBox="0 0 56 56" fill="none" xmlns="http://www.w3.org/2000/svg">
<g clip-path="url(#clip0_4_126)">
<path d="M4.31093 26.7279C4.30976 30.7751 5.41273 34.7269 7.51 38.21L4.11035 50.1109L16.8132 46.9175C20.3266 48.7513 24.2632 49.7122 28.2635 49.7125H28.274C41.4798 49.7125 52.2297 39.4096 52.2353 26.746C52.2379 20.6096 49.7476 14.8393 45.2232 10.4981C40.6996 6.15724 34.6833 3.76537 28.273 3.76257C15.0657 3.76257 4.31657 14.0649 4.31112 26.7279" fill="url(#paint0_linear_4_126)"/>
<path d="M0.893156 26.6969C0.891715 31.3517 2.09968 35.8958 4.3962 39.9012L0.672852 53.5871L14.5852 49.9147C18.4185 52.0188 22.7344 53.1281 27.1261 53.1298H27.1374C41.6009 53.1298 53.375 41.2802 53.3812 26.718C53.3837 19.6606 50.656 13.0243 45.7014 8.03201C40.7462 3.04038 34.1577 0.289401 27.1374 0.286499C12.6714 0.286499 0.898921 12.1344 0.893156 26.6969ZM9.17825 39.2114L8.65878 38.3812C6.47509 34.8857 5.32251 30.8463 5.32416 26.6985C5.32889 14.5946 15.1137 4.74709 27.1456 4.74709C32.9724 4.74958 38.4483 7.03625 42.5669 11.1851C46.6854 15.3344 48.9516 20.85 48.9502 26.7163C48.9448 38.8203 39.1598 48.669 27.1374 48.669H27.1287C23.2141 48.6669 19.3748 47.6086 16.0266 45.6086L15.2298 45.1329L6.97397 47.312L9.17825 39.2112V39.2114Z" fill="url(#paint1_linear_4_126)"/>
<path d="M22.8322 15.3214C22.3886 14.2466 21.9219 14.2249 21.5001 14.2061C21.1547 14.1898 20.7599 14.1911 20.3654 14.1911C19.9706 14.1911 19.3291 14.353 18.7869 14.9986C18.2441 15.6447 16.7146 17.2062 16.7146 20.382C16.7146 23.5581 18.8361 26.6273 19.1319 27.0584C19.428 27.4887 23.2275 34.2146 29.2451 36.802C34.2462 38.9523 35.2639 38.5246 36.3493 38.4168C37.4349 38.3094 39.8522 36.8557 40.3454 35.3484C40.8389 33.8412 40.8389 32.5493 40.6909 32.2793C40.543 32.0104 40.1481 31.8488 39.5561 31.5262C38.9638 31.2033 36.0532 29.6416 35.5106 29.4262C34.9678 29.2109 34.5732 29.1035 34.1784 29.7498C33.7835 30.3952 32.6498 31.8488 32.3042 32.2793C31.959 32.7108 31.6135 32.7646 31.0216 32.4417C30.4292 32.1178 28.5225 31.437 26.2605 29.2381C24.5005 27.527 23.3123 25.414 22.9669 24.7677C22.6215 24.1223 22.9299 23.7725 23.2268 23.4509C23.4928 23.1616 23.819 22.6971 24.1153 22.3203C24.4105 21.9433 24.509 21.6743 24.7065 21.2438C24.9041 20.8129 24.8052 20.4359 24.6574 20.1131C24.509 19.7902 23.3586 16.5977 22.8322 15.3214Z" fill="white"/>
</g>
<defs>
<linearGradient id="paint0_linear_4_126" x1="28.1729" y1="50.1109" x2="28.1729" y2="3.76257" gradientUnits="userSpaceOnUse">
<stop stop-color="#1FAF38"/>
<stop offset="1" stop-color="#60D669"/>
</linearGradient>
<linearGradient id="paint1_linear_4_126" x1="27.027" y1="53.5871" x2="27.027" y2="0.286499" gradientUnits="userSpaceOnUse">
<stop stop-color="#F9F9F9"/>
<stop offset="1" stop-color="white"/>
</linearGradient>
<clipPath id="clip0_4_126">
<rect width="55.1719" height="55.618" fill="white" transform="translate(0.165649 0.286499)"/>
</clipPath>
</defs>
</svg>
