<svg width="59" height="55" viewBox="0 0 59 55" fill="none" xmlns="http://www.w3.org/2000/svg">
<g clip-path="url(#clip0_4_130)">
<path d="M29.7906 0.286499C22.764 0.286499 16.0189 3.11157 11.0543 8.13531C6.08459 13.161 3.29203 19.9769 3.29065 27.0843C3.29065 34.1886 6.08557 41.0095 11.0543 46.0332C16.0189 51.0569 22.764 53.882 29.7906 53.882C36.8173 53.882 43.5624 51.0569 48.527 46.0332C53.4957 41.0095 56.2906 34.1886 56.2906 27.0843C56.2906 19.9799 53.4957 13.1591 48.527 8.13531C43.5624 3.11157 36.8173 0.286499 29.7906 0.286499Z" fill="url(#paint0_linear_4_130)"/>
<path d="M15.286 26.8012C23.0124 23.3978 28.1634 21.1539 30.7388 20.0699C38.1009 16.9743 39.6287 16.4367 40.6266 16.4185C40.8461 16.4149 41.3347 16.4698 41.6535 16.7304C41.9185 16.9503 41.993 17.2475 42.0303 17.4563C42.0634 17.6648 42.109 18.14 42.0717 18.511C41.6742 22.7484 39.9476 33.0312 39.0698 37.7773C38.7013 39.7855 37.9684 40.4588 37.2603 40.5245C35.72 40.6677 34.5523 39.4962 33.0617 38.5084C30.7305 36.9621 29.4138 35.9999 27.1489 34.4913C24.532 32.7477 26.2297 31.7893 27.7203 30.2233C28.1095 29.8134 34.8919 23.5766 35.0202 23.0109C35.0368 22.9402 35.0534 22.6764 34.896 22.5374C34.7428 22.398 34.5151 22.4457 34.3495 22.4834C34.1134 22.537 30.391 25.0275 23.1698 29.9545C22.1139 30.6889 21.1574 31.0469 20.2962 31.0281C19.3521 31.0076 17.5302 30.4871 16.1762 30.0424C14.52 29.4968 13.1991 29.2083 13.3151 28.2817C13.373 27.7994 14.0314 27.3057 15.286 26.8012Z" fill="white"/>
</g>
<defs>
<linearGradient id="paint0_linear_4_130" x1="29.7906" y1="0.286499" x2="29.7906" y2="53.882" gradientUnits="userSpaceOnUse">
<stop stop-color="#2AABEE"/>
<stop offset="1" stop-color="#229ED9"/>
</linearGradient>
<clipPath id="clip0_4_130">
<rect width="58" height="54" fill="white" transform="translate(0.834351 0.095459)"/>
</clipPath>
</defs>
</svg>
