<svg width="80" height="61" viewBox="0 0 80 61" fill="none" xmlns="http://www.w3.org/2000/svg">
<path d="M0 59.822V0.5H20.9612C25.2964 0.5 29.0321 1.37571 32.1682 3.12712C35.3043 4.82203 37.7256 7.27966 39.432 10.5C41.1384 13.7203 41.9916 17.5621 41.9916 22.0254C41.9916 26.4322 41.1384 30.2458 39.432 33.4661C37.7256 36.6864 35.3043 39.1723 32.1682 40.9237C29.0321 42.6186 25.2964 43.4661 20.9612 43.4661H6.2261L11.207 37.2797V59.822H0ZM11.207 38.8051L6.2261 32.2797H20.3386C23.7975 32.2797 26.3802 31.3757 28.0866 29.5678C29.793 27.7599 30.6463 25.2458 30.6463 22.0254C30.6463 18.7486 29.793 16.2062 28.0866 14.3983C26.3802 12.5904 23.7975 11.6864 20.3386 11.6864H6.2261L11.207 5.16102V38.8051Z" fill="#31A8FF"/>
<path d="M62.4286 60.5C59.2463 60.5 56.1794 60.048 53.2278 59.1441C50.3222 58.1836 48.0163 56.9972 46.3099 55.5847L49.9072 46.0932C51.6136 47.3927 53.6198 48.4661 55.9257 49.3136C58.2778 50.1045 60.5838 50.5 62.8436 50.5C65.3341 50.5 67.0866 50.1328 68.1012 49.3983C69.162 48.6638 69.6923 47.6469 69.6923 46.3475C69.6923 45.274 69.2773 44.4831 68.4471 43.9746C67.6631 43.4096 66.6024 42.9859 65.2649 42.7034C63.9274 42.4209 62.4516 42.1384 60.8374 41.8559C59.2694 41.5734 57.6783 41.2062 56.0641 40.7542C54.4499 40.2458 52.9741 39.5113 51.6366 38.5508C50.2992 37.5904 49.2154 36.291 48.3852 34.6525C47.6012 33.0141 47.2092 30.8955 47.2092 28.2966C47.2092 25.4153 47.8779 22.8729 49.2154 20.6695C50.599 18.4661 52.5821 16.7429 55.1648 15.5C57.7474 14.2006 60.8374 13.5509 64.4347 13.5509C66.9713 13.5509 69.554 13.8898 72.1828 14.5678C74.8116 15.2458 77.0023 16.2345 78.7548 17.5339L75.1575 26.9407C73.3588 25.6412 71.5371 24.7655 69.6923 24.3136C67.8937 23.8051 66.1412 23.5508 64.4347 23.5508C62.0365 23.5508 60.284 23.9463 59.1772 24.7373C58.0703 25.5283 57.5169 26.5452 57.5169 27.7881C57.5169 28.9181 57.9089 29.7655 58.6929 30.3305C59.523 30.8955 60.6068 31.3475 61.9443 31.6864C63.2818 32.0254 64.7345 32.3362 66.3026 32.6186C67.9168 32.8446 69.5309 33.2119 71.1451 33.7203C72.7593 34.2288 74.212 34.9633 75.5034 35.9237C76.8408 36.8277 77.9246 38.0989 78.7548 39.7373C79.5849 41.3192 80 43.4096 80 46.0085C80 48.8333 79.3082 51.3475 77.9246 53.5508C76.541 55.6977 74.5349 57.3927 71.9061 58.6356C69.3234 59.8785 66.1642 60.5 62.4286 60.5Z" fill="#31A8FF"/>
</svg>
