<svg width="64" height="69" viewBox="0 0 64 69" fill="none" xmlns="http://www.w3.org/2000/svg">
<path d="M28 20.5L37 25.0366V68.5H28V20.5Z" fill="#2E2E2E"/>
<path d="M10.683 10.6242C8.11907 13.0792 8.51518 19.0908 8.51518 19.0908H1.00003C1.00003 19.0908 0.965493 11.5433 3.16786 7.48329C4.31218 5.37376 5.94415 3.66644 7.93706 2.31269C11.0225 0.216832 14.911 0.236226 18.4872 0.891365C20.4883 1.25795 23.401 2.611 23.401 2.611L40.7436 11.2092C40.7436 11.2092 44.0772 12.8995 46.38 12.9288C48.2286 12.9523 49.3954 12.8281 51.0047 11.9257C52.4636 11.1075 53.152 10.3262 54.0396 8.91632C55.5826 6.46566 55.1958 1.60788 55.1958 1.60788H63L62.5664 7.47159C62.5664 7.47159 62.3675 10.36 61.6993 12.0572C61.2308 13.2472 60.5431 14.6367 59.965 15.2099L57.3636 17.7894C57.3636 17.7894 54.4747 19.3968 52.4499 19.9389C48.0246 21.1238 43.1331 20.2352 40.7436 19.0908C32.447 15.1174 23.1119 10.3493 19.4989 8.91632C15.8858 7.48329 13.3069 8.1118 10.683 10.6242Z" fill="#2E2E2E"/>
<path d="M28 20.5L28.2251 20.0535L27.5 19.688V20.5H28ZM37 25.0366H37.5V24.7287L37.2251 24.5901L37 25.0366ZM37 68.5V69H37.5V68.5H37ZM28 68.5H27.5V69H28V68.5ZM8.51518 19.0908V19.5908C8.6535 19.5908 8.78564 19.5335 8.88017 19.4326C8.97471 19.3316 9.02319 19.196 9.0141 19.0579L8.51518 19.0908ZM10.683 10.6242L10.3372 10.2631L10.683 10.6242ZM19.4989 8.91632L19.6832 8.45154L19.4989 8.91632ZM40.7436 19.0908L40.5276 19.5418L40.7436 19.0908ZM63 1.60788L63.4986 1.64475C63.5089 1.50612 63.461 1.36947 63.3664 1.26761C63.2718 1.16575 63.139 1.10788 63 1.10788V1.60788ZM55.1958 1.60788V1.10788C55.0563 1.10788 54.9231 1.16616 54.8285 1.26865C54.7338 1.37113 54.6863 1.5085 54.6974 1.64756L55.1958 1.60788ZM54.0396 8.91632L53.6165 8.64992L54.0396 8.91632ZM51.0047 11.9257L51.2492 12.3618V12.3618L51.0047 11.9257ZM46.38 12.9288L46.3863 12.4288L46.38 12.9288ZM40.7436 11.2092L40.9697 10.7632L40.9657 10.7612L40.7436 11.2092ZM23.401 2.611L23.6231 2.16289L23.6116 2.15754L23.401 2.611ZM18.4872 0.891365L18.3971 1.38318L18.4872 0.891365ZM7.93706 2.31269L7.65611 1.89909H7.65611L7.93706 2.31269ZM3.16786 7.48329L2.72836 7.24489H2.72836L3.16786 7.48329ZM1.00003 19.0908L0.500037 19.0931C0.501297 19.3684 0.724783 19.5908 1.00003 19.5908V19.0908ZM52.4499 19.9389L52.3205 19.456L52.4499 19.9389ZM57.3636 17.7894L57.6067 18.2263C57.6466 18.2041 57.6833 18.1766 57.7157 18.1444L57.3636 17.7894ZM59.965 15.2099L59.613 14.8549L59.6129 14.8549L59.965 15.2099ZM61.6993 12.0572L61.234 11.8741V11.8741L61.6993 12.0572ZM62.5664 7.47159L62.0678 7.43471L62.0676 7.43725L62.5664 7.47159ZM27.7749 20.9465L36.7749 25.4831L37.2251 24.5901L28.2251 20.0535L27.7749 20.9465ZM36.5 25.0366V68.5H37.5V25.0366H36.5ZM37 68H28V69H37V68ZM28.5 68.5V20.5H27.5V68.5H28.5ZM8.51518 19.0908C9.0141 19.0579 9.0141 19.058 9.01411 19.0581C9.01411 19.0581 9.01411 19.0581 9.01411 19.0581C9.01411 19.0581 9.0141 19.058 9.01408 19.0577C9.01406 19.0573 9.01401 19.0565 9.01394 19.0554C9.01379 19.0531 9.01356 19.0493 9.01326 19.0442C9.01267 19.034 9.01178 19.0183 9.01071 18.9973C9.00857 18.9552 9.00568 18.8922 9.00287 18.8105C8.99725 18.6471 8.99191 18.4093 8.99334 18.1156C8.9962 17.5273 9.02616 16.7194 9.13391 15.8389C9.35368 14.0429 9.88189 12.0835 11.0288 10.9854L10.3372 10.2631C8.92016 11.6199 8.36447 13.8938 8.14131 15.7174C8.02761 16.6466 7.99635 17.4951 7.99335 18.1107C7.99186 18.419 7.99744 18.67 8.00346 18.8449C8.00647 18.9324 8.0096 19.0009 8.01201 19.0482C8.01321 19.0718 8.01424 19.0901 8.01498 19.1028C8.01535 19.1091 8.01565 19.114 8.01587 19.1175C8.01598 19.1193 8.01607 19.1207 8.01613 19.1217C8.01617 19.1222 8.01619 19.1227 8.01621 19.123C8.01623 19.1231 8.01624 19.1233 8.01624 19.1234C8.01625 19.1236 8.01626 19.1237 8.51518 19.0908ZM11.0288 10.9854C12.2975 9.77059 13.517 9.0478 14.8204 8.78054C16.1227 8.51352 17.5692 8.68886 19.3145 9.3811L19.6832 8.45154C17.8155 7.71075 16.166 7.48384 14.6196 7.80092C13.0743 8.11777 11.6924 8.96546 10.3372 10.2631L11.0288 10.9854ZM19.3145 9.3811C22.9067 10.8059 32.2003 15.5536 40.5276 19.5418L40.9596 18.6399C32.6938 14.6812 23.3171 9.89284 19.6832 8.45154L19.3145 9.3811ZM63 1.10788H55.1958V2.10788H63V1.10788ZM55.1958 1.60788C54.6974 1.64756 54.6974 1.6475 54.6974 1.64745C54.6974 1.64745 54.6974 1.64742 54.6974 1.64744C54.6974 1.64747 54.6974 1.64758 54.6974 1.64775C54.6974 1.64811 54.6975 1.64876 54.6976 1.64969C54.6977 1.65157 54.6979 1.65459 54.6982 1.65874C54.6988 1.66704 54.6998 1.67983 54.7009 1.6969C54.7032 1.73105 54.7065 1.78228 54.7102 1.84883C54.7175 1.98198 54.7263 2.17623 54.7323 2.4175C54.7442 2.90061 54.7443 3.56929 54.6973 4.31155C54.6018 5.8219 54.3163 7.53851 53.6165 8.64992L54.4627 9.18272C55.306 7.84347 55.5985 5.90586 55.6953 4.37466C55.7446 3.59614 55.7444 2.89721 55.732 2.3929C55.7258 2.14046 55.7165 1.93605 55.7087 1.79396C55.7048 1.7229 55.7012 1.66738 55.6986 1.62916C55.6973 1.61006 55.6963 1.59528 55.6955 1.58504C55.6951 1.57992 55.6948 1.57594 55.6946 1.57313C55.6945 1.57172 55.6944 1.5706 55.6944 1.56978C55.6943 1.56937 55.6943 1.56903 55.6943 1.56876C55.6943 1.56863 55.6943 1.56849 55.6942 1.56842C55.6942 1.5683 55.6942 1.56819 55.1958 1.60788ZM53.6165 8.64992C52.7599 10.0105 52.1271 10.7229 50.7601 11.4896L51.2492 12.3618C52.8002 11.492 53.5441 10.6418 54.4627 9.18272L53.6165 8.64992ZM50.7601 11.4896C49.2581 12.3319 48.1906 12.4518 46.3863 12.4288L46.3736 13.4288C48.2666 13.4529 49.5328 13.3244 51.2492 12.3618L50.7601 11.4896ZM46.3863 12.4288C45.3282 12.4154 43.9886 12.0136 42.8759 11.5906C42.3276 11.3822 41.8492 11.1744 41.5079 11.0188C41.3375 10.9411 41.2017 10.8766 41.1091 10.8318C41.0628 10.8094 41.0273 10.7919 41.0037 10.7802C40.992 10.7744 40.9831 10.77 40.9774 10.7671C40.9746 10.7657 40.9725 10.7646 40.9712 10.764C40.9705 10.7636 40.9701 10.7634 40.9699 10.7633C40.9697 10.7632 40.9697 10.7632 40.9696 10.7632C40.9696 10.7632 40.9696 10.7632 40.9696 10.7632C40.9697 10.7632 40.9697 10.7632 40.7436 11.2092C40.5175 11.6551 40.5175 11.6552 40.5176 11.6552C40.5177 11.6552 40.5178 11.6553 40.5179 11.6553C40.518 11.6554 40.5183 11.6555 40.5186 11.6557C40.5191 11.6559 40.5199 11.6563 40.5209 11.6568C40.5228 11.6578 40.5255 11.6592 40.529 11.6609C40.5361 11.6645 40.5463 11.6696 40.5594 11.6761C40.5858 11.6892 40.6242 11.7081 40.6736 11.7319C40.7723 11.7797 40.9149 11.8475 41.093 11.9287C41.4488 12.0909 41.9476 12.3075 42.5206 12.5254C43.6504 12.9549 45.129 13.4129 46.3736 13.4288L46.3863 12.4288ZM40.9657 10.7612L23.623 2.16303L23.1789 3.05897L40.5215 11.6571L40.9657 10.7612ZM23.401 2.611C23.6116 2.15754 23.6116 2.15752 23.6115 2.15749C23.6115 2.15747 23.6114 2.15744 23.6113 2.15741C23.6112 2.15735 23.611 2.15726 23.6108 2.15716C23.6103 2.15695 23.6097 2.15666 23.6089 2.15629C23.6073 2.15555 23.605 2.15449 23.602 2.15311C23.5961 2.15036 23.5874 2.14635 23.576 2.14117C23.5534 2.13079 23.5203 2.11568 23.4776 2.09642C23.3922 2.0579 23.2686 2.00271 23.1143 1.93546C22.8057 1.80105 22.3733 1.61801 21.8772 1.42324C20.8936 1.03705 19.6278 0.591994 18.5773 0.39955L18.3971 1.38318C19.3477 1.55732 20.5388 1.97208 21.5118 2.35407C21.994 2.54338 22.4148 2.72152 22.7149 2.85225C22.8648 2.91758 22.9844 2.97097 23.0662 3.00787C23.1071 3.02632 23.1385 3.04064 23.1595 3.05026C23.17 3.05507 23.1779 3.05871 23.183 3.0611C23.1856 3.0623 23.1875 3.06318 23.1888 3.06374C23.1894 3.06402 23.1898 3.06422 23.1901 3.06434C23.1902 3.0644 23.1903 3.06444 23.1903 3.06446C23.1903 3.06447 23.1903 3.06447 23.1903 3.06448C23.1903 3.06447 23.1903 3.06446 23.401 2.611ZM7.65611 1.89909C5.60525 3.2922 3.9152 5.05696 2.72836 7.24489L3.60737 7.7217C4.70916 5.69056 6.28305 4.04067 8.21801 2.72629L7.65611 1.89909ZM2.72836 7.24489C1.57807 9.36544 1.02887 12.3502 0.761131 14.7542C0.626198 15.9658 0.56098 17.0482 0.529455 17.8279C0.513685 18.2179 0.506325 18.5328 0.502911 18.7508C0.501203 18.8598 0.500481 18.9446 0.500188 19.0025C0.500042 19.0315 0.500002 19.0538 0.5 19.069C0.499999 19.0766 0.500008 19.0824 0.500017 19.0865C0.500021 19.0885 0.500026 19.09 0.50003 19.0912C0.500032 19.0917 0.500033 19.0922 0.500035 19.0925C0.500035 19.0926 0.500036 19.0928 0.500036 19.0929C0.500037 19.093 0.500037 19.0931 1.00003 19.0908C1.50003 19.0885 1.50003 19.0886 1.50003 19.0886C1.50003 19.0886 1.50003 19.0885 1.50003 19.0885C1.50003 19.0883 1.50003 19.0881 1.50002 19.0877C1.50002 19.087 1.50002 19.0858 1.50001 19.0842C1.50001 19.081 1.5 19.0759 1.5 19.0691C1.5 19.0555 1.50004 19.0349 1.50018 19.0076C1.50045 18.953 1.50114 18.8717 1.50279 18.7664C1.50609 18.5558 1.51324 18.2493 1.52864 17.8683C1.55946 17.1059 1.62326 16.0477 1.75499 14.8649C2.02057 12.4802 2.55529 9.6612 3.60737 7.7217L2.72836 7.24489ZM1.00003 19.5908H8.51518V18.5908H1.00003V19.5908ZM18.5773 0.39955C14.961 -0.262926 10.9072 -0.309303 7.65611 1.89909L8.21801 2.72629C11.1377 0.742967 14.8609 0.735378 18.3971 1.38318L18.5773 0.39955ZM40.5276 19.5418C43.0171 20.734 48.0308 21.6398 52.5792 20.4219L52.3205 19.456C48.0185 20.6079 43.2491 19.7364 40.9596 18.6399L40.5276 19.5418ZM52.5792 20.4219C53.6392 20.1381 54.9026 19.5834 55.883 19.1114C56.3772 18.8734 56.807 18.6527 57.1134 18.4915C57.2667 18.4108 57.3894 18.3449 57.474 18.299C57.5163 18.276 57.5491 18.2581 57.5716 18.2457C57.5828 18.2396 57.5914 18.2348 57.5973 18.2315C57.6002 18.2299 57.6025 18.2287 57.6041 18.2278C57.6049 18.2273 57.6055 18.227 57.6059 18.2268C57.6061 18.2266 57.6063 18.2265 57.6064 18.2265C57.6065 18.2264 57.6066 18.2264 57.6066 18.2264C57.6067 18.2263 57.6067 18.2263 57.3636 17.7894C57.1205 17.3525 57.1205 17.3525 57.1205 17.3525C57.1205 17.3525 57.1205 17.3525 57.1205 17.3525C57.1205 17.3525 57.1204 17.3525 57.1202 17.3526C57.12 17.3528 57.1195 17.353 57.1189 17.3533C57.1177 17.354 57.1158 17.3551 57.1132 17.3565C57.1081 17.3594 57.1002 17.3637 57.0898 17.3694C57.0689 17.3809 57.0377 17.398 56.9971 17.4201C56.9158 17.4642 56.7969 17.528 56.6477 17.6065C56.3492 17.7636 55.9303 17.9787 55.4491 18.2104C54.4788 18.6775 53.2854 19.1976 52.3205 19.456L52.5792 20.4219ZM57.7157 18.1444L60.3171 15.565L59.6129 14.8549L57.0116 17.4344L57.7157 18.1444ZM60.3171 15.565C60.6621 15.2229 61.0072 14.6763 61.3144 14.1001C61.6279 13.5122 61.9247 12.8494 62.1645 12.2404L61.234 11.8741C61.0053 12.455 60.7241 13.0819 60.432 13.6296C60.1337 14.189 59.846 14.6238 59.613 14.8549L60.3171 15.565ZM62.1645 12.2404C62.5212 11.3345 62.7442 10.1395 62.8784 9.19855C62.9463 8.72252 62.9929 8.30091 63.0225 7.9981C63.0373 7.84658 63.0479 7.72449 63.0549 7.63984C63.0583 7.59751 63.0609 7.56453 63.0626 7.54188C63.0635 7.53055 63.0641 7.52181 63.0645 7.51578C63.0647 7.51276 63.0649 7.51042 63.065 7.50878C63.0651 7.50795 63.0651 7.5073 63.0652 7.50683C63.0652 7.50659 63.0652 7.5064 63.0652 7.50625C63.0652 7.50617 63.0652 7.50609 63.0652 7.50605C63.0652 7.50599 63.0652 7.50593 62.5664 7.47159C62.0676 7.43725 62.0676 7.43721 62.0676 7.43719C62.0676 7.43719 62.0676 7.43718 62.0676 7.43719C62.0676 7.43722 62.0676 7.43729 62.0676 7.4374C62.0676 7.43763 62.0675 7.43803 62.0675 7.4386C62.0674 7.43974 62.0673 7.44157 62.0671 7.44407C62.0667 7.44907 62.0662 7.45676 62.0654 7.467C62.0639 7.48749 62.0615 7.51822 62.0582 7.55818C62.0517 7.63813 62.0415 7.75496 62.0273 7.90074C61.9987 8.19255 61.9538 8.59912 61.8885 9.05735C61.7562 9.9849 61.5456 11.0827 61.234 11.8741L62.1645 12.2404ZM63.065 7.50846L63.4986 1.64475L62.5014 1.57101L62.0678 7.43472L63.065 7.50846Z" fill="#2E2E2E"/>
</svg>
